<?xml version="1.0" encoding="utf-8"?>
<!-- Generator: Adobe Illustrator 19.1.0, SVG Export Plug-In . SVG Version: 6.00 Build 0)  -->
<!DOCTYPE svg PUBLIC "-//W3C//DTD SVG 1.1//EN" "http://www.w3.org/Graphics/SVG/1.1/DTD/svg11.dtd">
<svg version="1.1" id="Layer_1" xmlns="http://www.w3.org/2000/svg" xmlns:xlink="http://www.w3.org/1999/xlink" x="0px" y="0px"
	 viewBox="0 0 30 30" enable-background="new 0 0 30 30" xml:space="preserve">
<g>
	<rect x="0.5" y="0.5" fill="#FFFFFF" width="7.2" height="7.2"/>
	<path d="M7.2,1v6.2H1V1H7.2 M8.2,0H0v8.2h8.2V0L8.2,0z"/>
</g>
<g>
	<rect x="11.4" y="0.5" fill="#FFFFFF" width="7.2" height="7.2"/>
	<path d="M18.1,1v6.2h-6.2V1H18.1 M19.1,0h-8.2v8.2h8.2V0L19.1,0z"/>
</g>
<g>
	<rect x="22.2" y="0.5" fill="#FFFFFF" width="7.2" height="7.2"/>
	<path d="M29,1v6.2h-6.2V1H29 M30,0h-8.2v8.2H30V0L30,0z"/>
</g>
<g>
	<rect x="0.5" y="11.4" fill="#FFFFFF" width="7.2" height="7.2"/>
	<path d="M7.2,11.9v6.2H1v-6.2H7.2 M8.2,10.9H0v8.2h8.2V10.9L8.2,10.9z"/>
</g>
<g>
	<rect x="11.4" y="11.4" fill="#FFFFFF" width="7.2" height="7.2"/>
	<path d="M18.1,11.9v6.2h-6.2v-6.2H18.1 M19.1,10.9h-8.2v8.2h8.2V10.9L19.1,10.9z"/>
</g>
<g>
	<rect x="22.2" y="11.4" fill="#FFFFFF" width="7.2" height="7.2"/>
	<path d="M29,11.9v6.2h-6.2v-6.2H29 M30,10.9h-8.2v8.2H30V10.9L30,10.9z"/>
</g>
<g>
	<rect x="0.5" y="22.2" fill="#FFFFFF" width="7.2" height="7.2"/>
	<path d="M7.2,22.8V29H1v-6.2H7.2 M8.2,21.8H0V30h8.2V21.8L8.2,21.8z"/>
</g>
<g>
	<rect x="11.4" y="22.2" fill="#FFFFFF" width="7.2" height="7.2"/>
	<path d="M18.1,22.8V29h-6.2v-6.2H18.1 M19.1,21.8h-8.2V30h8.2V21.8L19.1,21.8z"/>
</g>
<g>
	<rect x="22.2" y="22.2" fill="#FFFFFF" width="7.2" height="7.2"/>
	<path d="M29,22.8V29h-6.2v-6.2H29 M30,21.8h-8.2V30H30V21.8L30,21.8z"/>
</g>
</svg>
