<?xml version="1.0" encoding="utf-8"?>
<!-- Generator: Adobe Illustrator 19.1.0, SVG Export Plug-In . SVG Version: 6.00 Build 0)  -->
<!DOCTYPE svg PUBLIC "-//W3C//DTD SVG 1.1//EN" "http://www.w3.org/Graphics/SVG/1.1/DTD/svg11.dtd">
<svg version="1.1" id="Layer_1" xmlns="http://www.w3.org/2000/svg" xmlns:xlink="http://www.w3.org/1999/xlink" x="0px" y="0px"
	 viewBox="0 0 388.3 60.8" enable-background="new 0 0 388.3 60.8" xml:space="preserve">
<g>
	<path fill="#FFFFFF" d="M16.8,23.5H14L4.3,11.2l7.8-9.6c0.1-0.2,0.9-1,0.9-1H15c0,0-0.5,0.6-0.8,1l-7.5,9l9,11.4l1.1,1.4V23.5z
		 M2.4,23.5H0V0.6h2.4V23.5z"/>
	<path fill="#FFFFFF" d="M36.8,3.2l-3.9,10h7.9L36.8,3.2L36.8,3.2z M47.3,23.5h-2.6c0,0-0.4-0.9-0.5-1.1l-2.9-7.5h-8.9l-3,7.5
		c-0.1,0.3-0.4,1.1-0.4,1.1h-2c0,0,0.3-0.8,0.5-1.1l8.9-22h1.7l8.7,22C47,22.9,47.3,23.5,47.3,23.5"/>
	<path fill="#FFFFFF" d="M151.5,3.2l-3.9,10h7.9L151.5,3.2L151.5,3.2z M161.9,23.5h-2.6c0,0-0.4-0.9-0.5-1.1l-2.9-7.5H147l-3,7.5
		c-0.1,0.3-0.4,1.1-0.4,1.1h-2c0,0,0.3-0.8,0.5-1.1l8.9-22h1.7l8.7,22C161.7,22.9,161.9,23.5,161.9,23.5"/>
	<path fill="#FFFFFF" d="M225.8,3.2l-3.9,10h7.9L225.8,3.2L225.8,3.2z M236.3,23.5h-2.6c0,0-0.4-0.9-0.5-1.1l-2.9-7.5h-8.9l-3,7.5
		c-0.1,0.3-0.4,1.1-0.4,1.1h-2c0,0,0.3-0.8,0.5-1.1l8.9-22h1.7l8.7,22C236,22.9,236.3,23.5,236.3,23.5"/>
	<path fill="#FFFFFF" d="M81.9,23.5h-2.4c0,0,0-1.2,0-2.3v-18h-0.1l-8.6,20.3h-1L61.1,3.2H61v18c0,1,0,2.3,0,2.3h-1.6
		c0,0,0-1.2,0-2.3V2.8l0-2.2h3.1l8.2,19.2l8.1-19.2h3c0,0,0,1.1,0,2.3v18.3C81.9,21.6,81.9,23.5,81.9,23.5"/>
	<path fill="#FFFFFF" d="M270.8,23.5h-2.4c0,0,0-1.2,0-2.3v-18h-0.1l-8.6,20.3h-1l-8.6-20.3H250v18c0,1,0,2.3,0,2.3h-1.6
		c0,0,0-1.2,0-2.3V2.8l0-2.2h3.1l8.2,19.2l8.1-19.2h3c0,0,0,1.1,0,2.3v18.3V23.5z"/>
	<path fill="#FFFFFF" d="M131.8,20.5l-0.1,2c-2.1,1-4.6,1.5-7.5,1.5c-3.7,0-6.7-1.1-9-3.2c-2.3-2.1-3.5-5-3.5-8.8
		c0-3.6,1.2-6.5,3.6-8.8c2.4-2.2,5.4-3.4,8.9-3.4c2.7,0,5.1,0.4,7.3,1.1v2h-0.1c-2.1-1.1-4.6-1.7-7.5-1.7c-3,0-5.3,1-7,2.9
		c-1.7,1.9-2.6,4.5-2.6,7.6c0,3.1,0.9,5.7,2.8,7.7c1.9,2,4.3,3,7.2,3c0.5,0,1,0,1.4-0.1c0.5-0.1,0.9-0.1,1.3-0.2
		c0.4-0.1,0.8-0.2,1.1-0.3c0.3-0.1,0.7-0.2,1.1-0.4c0.4-0.2,0.7-0.3,0.9-0.4c0.2-0.1,0.5-0.2,0.8-0.4
		C131.5,20.6,131.7,20.5,131.8,20.5L131.8,20.5z"/>
</g>
<polygon fill="#FFFFFF" points="201.7,0.6 201.7,10.8 189.7,10.8 189.7,0.6 187.3,0.6 187.3,23.5 189.7,23.5 189.7,12.3 201.7,12.3 
	201.7,23.5 204.1,23.5 204.1,0.6 "/>
<g>
	<path fill="#FFFFFF" d="M296.2,7.2c0-1.6-0.5-2.9-1.4-3.8C294,2.5,292.7,2,291.2,2H288v10.3h2.7c1.8,0,3.2-0.5,4.1-1.4
		C295.8,10,296.2,8.7,296.2,7.2 M298.7,6.9c0,1.9-0.7,3.5-2,4.8s-3,1.9-5,1.9H288v7.4c0,1.1,0,2.4,0,2.4h-2.4c0,0,0-1.2,0-2.3V2.9
		V0.6h6c2.1,0,3.7,0.6,5.1,1.7C298.1,3.4,298.7,4.9,298.7,6.9"/>
	<path fill="#FFFFFF" d="M325.9,0.6l0,1.4l-7.7,0v19.2c0,0.5,0,2.3,0,2.3h-2.3c0,0,0-1.2,0-2.3V2h-3c-2.3,0-4.7,0-4.7,0l0-1.4H325.9
		z"/>
	<path fill="#FFFFFF" d="M355.3,12.5c0-1.5-0.2-2.9-0.5-4.2c-0.4-1.3-0.9-2.5-1.6-3.5c-0.7-1-1.7-1.9-2.9-2.5
		c-1.2-0.6-2.6-0.9-4.2-0.9c-1.3,0-2.4,0.2-3.5,0.7c-1,0.4-1.9,1-2.5,1.7c-0.6,0.7-1.2,1.5-1.6,2.4c-0.4,0.9-0.7,1.8-0.9,2.7
		c-0.2,0.9-0.3,1.8-0.3,2.7c0,3.2,0.8,5.8,2.4,7.9c1.6,2.1,3.8,3.1,6.6,3.1c1.4,0,2.6-0.2,3.7-0.7c1.1-0.4,1.9-1,2.6-1.7
		c0.7-0.7,1.2-1.5,1.6-2.4c0.4-0.9,0.7-1.8,0.9-2.7C355.2,14.3,355.3,13.4,355.3,12.5 M358,11.4c0,3.8-1.1,6.8-3.3,9.2
		c-2.2,2.4-5,3.5-8.6,3.5c-3.3,0-6.1-1.1-8.3-3.4c-2.2-2.3-3.3-5.1-3.3-8.4c0-3.5,1.1-6.4,3.3-8.8c2.2-2.4,5-3.6,8.5-3.6
		c3.4,0,6.3,1.1,8.4,3.3S358,8.2,358,11.4"/>
	<path fill="#FFFFFF" d="M388.3,2.9v20.7h-1.4L371.5,3.1h-0.1v18c0,1,0,2.3,0,2.3h-1.6c0,0,0-1.2,0-2.3V2.9c0-1.2,0-2.3,0-2.3h2.8
		l14,18.5h0.1V2.9c0-1,0-2.3,0-2.3h1.6C388.3,0.6,388.3,1.8,388.3,2.9"/>
</g>
<rect x="96.7" y="0.6" fill="#FFFFFF" width="2.3" height="22.9"/>
<g>
	<path fill="#FFFFFF" d="M232.5,53.4l-1.4-0.6c-1.3-0.6-1.9-1.2-1.9-2.3c0-1.3,1.2-1.9,2.3-1.9c1.1,0,1.9,0.4,2.7,1.3l0.1,0.1l1.1-1
		l-0.1-0.1c-0.9-1.1-2.3-1.7-3.7-1.7c-1.9,0-3.8,1.2-3.8,3.2c0,1.7,0.9,2.9,2.9,3.7l1.4,0.6c1.4,0.6,2.3,1.3,2.3,2.6
		c0,1.3-1.1,2.1-2.8,2.1c-1.2,0-2.3-0.5-3-1.5l-0.1-0.1l-1.1,1l0.1,0.1c0.7,0.9,2.2,1.9,4.1,1.9c2.5,0,4.3-1.5,4.3-3.6
		S233.9,53.9,232.5,53.4"/>
</g>
<polygon fill="#FFFFFF" points="151.1,47.6 151.1,49.1 155.3,49.1 155.3,60.6 156.9,60.6 156.9,49.1 161.1,49.1 161.1,47.6 "/>
<polygon fill="#FFFFFF" points="171.7,47.6 171.7,60.6 178.2,60.6 178.2,59.1 173.3,59.1 173.3,54.5 177.2,54.5 177.2,53.1 
	173.3,53.1 173.3,49.1 177.8,49.1 177.8,47.6 "/>
<polygon fill="#FFFFFF" points="196.4,47.6 193.3,52.4 190.2,47.6 188.2,47.6 192.3,53.9 187.9,60.6 189.8,60.6 193.2,55.3 
	196.5,60.5 196.5,60.6 198.5,60.6 194.2,53.8 198.2,47.6 "/>
<path fill="#FFFFFF" d="M213.2,50l1.6,4.2h-3.2L213.2,50z M212.7,47.4l-5.1,12.9l-0.1,0.2h1.6l1.9-4.9h4.3l1.8,4.8l0,0.1h1.7
	l-5.1-13l0-0.1H212.7z"/>
</svg>
